# xmcd CD database file
#
# Track frame offsets:
#	150
#	33325
#	56706
#	93810
#	124881
#	145754
#	165366
#	214974
#
# Disc length: 3207 seconds
#
# Revision: 1
# Processed by: cddbd v1.5.2PL0 Copyright (c) Steve Scherf et al.
# Submitted via: CDex 1.70beta2
#
DISCID=690c8508
DTITLE=Various Artist - The Inner Spirit of India: Traditional Music from the Subcontinent 
DYEAR=2002
DGENRE=Ethnic
TTITLE0=Rag Pilu - Jagdeep Singh Bedi,Kailash Chandra Sharma, Ravi Kumarand Om and Prakash Rai
TTITLE1=Sarasasamadana - Karaikudi Subramanian, Trichy Sankaran and Lalitha Sankaran
TTITLE2=Dhun-Rag Khammaj - Tarun Bhattacharya, Daya Shankar and Shashank Bakshi
TTITLE3=Sultan Bhai - Sultan Khan, with Badal Roy
TTITLE4=Kriti: Chintadirchara - A. Kanyakumari, M.A. Easwaran, M.S. Siva, N. Vijayalakshmi and K.G. Pillai
TTITLE5=Violin Improvisation: Tanam, Raga Aberi - L. Shankar
TTITLE6=Misra Dhun in Dadra Tala - Snehasish Mozumder, Subhem Chatterjee
TTITLE7=Percussion Improvisation: Pallavi, Raga Aberi - Zakir Hussain, Vikku Vinayakram, L. Shankar
EXTD=YEAR: 2002
EXTT0=
EXTT1=
EXTT2=
EXTT3=
EXTT4=
EXTT5=
EXTT6=
EXTT7=
PLAYORDER=
